<svg version="1.1" id="Layer_1" xmlns="http://www.w3.org/2000/svg" xmlns:xlink="http://www.w3.org/1999/xlink" x="0px" y="0px"
	 width="100%" viewBox="0 0 512 512" enable-background="new 0 0 512 512" xml:space="preserve">
<path fill="#FC490B" opacity="1.000000" stroke="none" 
	d="
M43.000000,1.000000 
	C185.355347,1.000000 327.710693,1.000000 470.643372,1.335076 
	C478.146118,4.467797 481.424866,9.739547 480.950562,17.050522 
	C480.131561,29.675425 478.991272,42.279308 478.011719,54.894020 
	C476.993500,68.005821 476.014069,81.120636 475.003143,94.233009 
	C473.676544,111.439926 472.347961,128.646698 470.996948,145.851715 
	C470.019470,158.299911 468.987152,170.743820 468.009583,183.192017 
	C466.658478,200.397034 465.264221,217.599121 464.026611,234.812408 
	C463.223114,245.988037 462.683258,257.182434 461.989960,268.366241 
	C461.694702,273.128784 461.377380,277.891785 460.952179,282.644073 
	C459.665802,297.021790 458.204803,311.384857 457.038727,325.772003 
	C456.173950,336.441589 455.678955,347.140930 454.986938,357.824890 
	C454.689240,362.420563 454.343018,367.013733 453.961243,371.603210 
	C452.654602,387.311951 451.304291,403.016998 450.007202,418.726471 
	C449.290405,427.407928 449.087280,436.160492 447.817505,444.757629 
	C446.947571,450.647491 443.322815,455.112610 437.207306,457.036346 
	C424.092316,461.161957 411.007416,465.383209 397.904602,469.547607 
	C370.153778,478.367554 342.395782,487.164978 314.647980,495.994324 
	C301.236359,500.261871 287.816315,504.505798 274.457825,508.934723 
	C271.512970,509.911041 268.812836,511.625488 266.000000,513.000000 
	C260.644196,513.000000 255.288406,513.000000 249.355835,512.644409 
	C248.101288,511.864716 247.476242,511.273315 246.738129,511.040833 
	C222.831970,503.511017 198.900421,496.061646 175.003067,488.504120 
	C144.000702,478.699707 113.009171,468.860229 82.056831,458.899536 
	C78.423080,457.730225 74.821259,456.075287 71.631355,453.992096 
	C64.598785,449.399323 65.913246,441.425629 65.184280,434.747284 
	C63.312660,417.600861 62.347889,400.355804 60.996910,383.152069 
	C60.019451,370.704742 58.977390,358.262543 58.011913,345.814331 
	C56.651802,328.277954 55.354752,310.736664 53.994701,293.200287 
	C53.029263,280.751953 51.994938,268.308990 51.008526,255.862274 
	C49.995872,243.084412 48.998486,230.305344 48.004730,217.526001 
	C46.998089,204.580917 45.935894,191.639648 45.022224,178.687958 
	C43.944859,163.415848 43.007305,148.133926 41.995148,132.857178 
	C41.679718,128.096268 41.391186,123.331879 40.965256,118.580299 
	C39.676529,104.203552 38.202381,89.842323 37.040897,75.455635 
	C36.166172,64.620911 35.763729,53.748642 34.949699,42.908203 
	C34.533733,37.368843 33.386425,31.878662 33.080357,26.338041 
	C32.535049,16.466459 31.671099,6.295177 43.000000,1.000000 
M387.000000,254.384766 
	C387.651459,247.195053 388.419922,240.013474 388.921387,232.813309 
	C389.420502,225.647018 389.651459,218.462051 390.023376,210.804016 
	C321.286346,210.804016 253.209579,210.804016 185.102509,210.804016 
	C182.856613,190.053970 180.659729,169.756714 178.402451,148.901550 
	C251.290375,148.901550 323.040436,148.901550 395.103027,148.901550 
	C396.498535,130.720261 397.861084,112.968369 399.222107,95.236359 
	C303.961151,95.236359 209.685867,95.236359 114.956642,95.236359 
	C115.334694,102.700584 115.662193,109.913666 116.079758,117.121544 
	C116.317299,121.221962 116.689240,125.314880 117.022820,129.409378 
	C118.343826,145.624054 119.691780,161.836578 120.989418,178.053116 
	C121.396683,183.142776 121.622147,188.246948 122.026268,193.336899 
	C123.326981,209.719910 124.633492,226.102676 126.017189,242.478821 
	C126.675034,250.264496 127.512672,258.034973 128.309921,266.234680 
	C195.749054,266.234680 262.811615,266.234680 329.777985,266.234680 
	C328.072998,289.976166 326.400604,313.263611 324.722168,336.635162 
	C305.825317,341.757843 286.968872,347.007263 268.020630,351.901154 
	C263.744019,353.005676 258.913177,353.980530 254.742569,353.098816 
	C242.558380,350.522949 230.568741,347.016754 218.522522,343.801514 
	C209.670853,341.438995 200.850143,338.960419 191.788895,336.471283 
	C191.788895,321.879242 191.788895,307.609863 191.788895,293.266296 
	C171.026718,293.266296 150.604431,293.266296 130.171219,293.266296 
	C132.501434,322.837372 134.810715,352.142822 137.124786,381.509033 
	C147.056808,384.670959 156.894180,387.806885 166.734161,390.934570 
	C193.422699,399.417786 220.092117,407.962158 246.819168,416.322266 
	C251.969849,417.933380 256.858521,419.846619 262.869263,417.792572 
	C283.389008,410.780334 304.165039,404.517853 324.844330,397.972717 
	C342.223236,392.472168 359.603668,386.976349 376.539001,381.619049 
	C377.073700,378.047668 377.705017,374.988098 377.964325,371.897339 
	C379.036377,359.117828 380.001404,346.329285 380.995178,333.543243 
	C382.001831,320.591522 383.000244,307.639130 383.994385,294.686432 
	C385.001251,281.567841 385.998444,268.448486 387.000000,254.384766 
z"/>
<path fill="#FFFFFF" opacity="1.000000" stroke="none" 
	d="
M42.531342,1.000000 
	C31.671099,6.295177 32.535049,16.466459 33.080357,26.338041 
	C33.386425,31.878662 34.533733,37.368843 34.949699,42.908203 
	C35.763729,53.748642 36.166172,64.620911 37.040897,75.455635 
	C38.202381,89.842323 39.676529,104.203552 40.965256,118.580299 
	C41.391186,123.331879 41.679718,128.096268 41.995148,132.857178 
	C43.007305,148.133926 43.944859,163.415848 45.022224,178.687958 
	C45.935894,191.639648 46.998089,204.580917 48.004730,217.526001 
	C48.998486,230.305344 49.995872,243.084412 51.008526,255.862274 
	C51.994938,268.308990 53.029263,280.751953 53.994701,293.200287 
	C55.354752,310.736664 56.651802,328.277954 58.011913,345.814331 
	C58.977390,358.262543 60.019451,370.704742 60.996910,383.152069 
	C62.347889,400.355804 63.312660,417.600861 65.184280,434.747284 
	C65.913246,441.425629 64.598785,449.399323 71.631355,453.992096 
	C74.821259,456.075287 78.423080,457.730225 82.056831,458.899536 
	C113.009171,468.860229 144.000702,478.699707 175.003067,488.504120 
	C198.900421,496.061646 222.831970,503.511017 246.738129,511.040833 
	C247.476242,511.273315 248.101288,511.864716 248.889526,512.644409 
	C166.378448,513.000000 83.756889,513.000000 1.067664,513.000000 
	C1.067664,342.333344 1.067664,171.666672 1.067664,1.000000 
	C14.744234,1.000000 28.403460,1.000000 42.531342,1.000000 
z"/>
<path fill="#FFFFFF" opacity="1.000000" stroke="none" 
	d="
M266.468658,513.000000 
	C268.812836,511.625488 271.512970,509.911041 274.457825,508.934723 
	C287.816315,504.505798 301.236359,500.261871 314.647980,495.994324 
	C342.395782,487.164978 370.153778,478.367554 397.904602,469.547607 
	C411.007416,465.383209 424.092316,461.161957 437.207306,457.036346 
	C443.322815,455.112610 446.947571,450.647491 447.817505,444.757629 
	C449.087280,436.160492 449.290405,427.407928 450.007202,418.726471 
	C451.304291,403.016998 452.654602,387.311951 453.961243,371.603210 
	C454.343018,367.013733 454.689240,362.420563 454.986938,357.824890 
	C455.678955,347.140930 456.173950,336.441589 457.038727,325.772003 
	C458.204803,311.384857 459.665802,297.021790 460.952179,282.644073 
	C461.377380,277.891785 461.694702,273.128784 461.989960,268.366241 
	C462.683258,257.182434 463.223114,245.988037 464.026611,234.812408 
	C465.264221,217.599121 466.658478,200.397034 468.009583,183.192017 
	C468.987152,170.743820 470.019470,158.299911 470.996948,145.851715 
	C472.347961,128.646698 473.676544,111.439926 475.003143,94.233009 
	C476.014069,81.120636 476.993500,68.005821 478.011719,54.894020 
	C478.991272,42.279308 480.131561,29.675425 480.950562,17.050522 
	C481.424866,9.739547 478.146118,4.467797 471.110352,1.335076 
	C484.992340,1.000000 498.984711,1.000000 512.982788,1.000000 
	C512.988525,171.565796 512.988525,342.131592 512.988525,513.000000 
	C430.979340,513.000000 348.958344,513.000000 266.468658,513.000000 
z"/>
<path fill="#FFFFFF" opacity="1.000000" stroke="none" 
	d="
M386.999939,254.857117 
	C385.998444,268.448486 385.001251,281.567841 383.994385,294.686432 
	C383.000244,307.639130 382.001831,320.591522 380.995178,333.543243 
	C380.001404,346.329285 379.036377,359.117828 377.964325,371.897339 
	C377.705017,374.988098 377.073700,378.047668 376.539001,381.619049 
	C359.603668,386.976349 342.223236,392.472168 324.844330,397.972717 
	C304.165039,404.517853 283.389008,410.780334 262.869263,417.792572 
	C256.858521,419.846619 251.969849,417.933380 246.819168,416.322266 
	C220.092117,407.962158 193.422699,399.417786 166.734161,390.934570 
	C156.894180,387.806885 147.056808,384.670959 137.124786,381.509033 
	C134.810715,352.142822 132.501434,322.837372 130.171219,293.266296 
	C150.604431,293.266296 171.026718,293.266296 191.788895,293.266296 
	C191.788895,307.609863 191.788895,321.879242 191.788895,336.471283 
	C200.850143,338.960419 209.670853,341.438995 218.522522,343.801514 
	C230.568741,347.016754 242.558380,350.522949 254.742569,353.098816 
	C258.913177,353.980530 263.744019,353.005676 268.020630,351.901154 
	C286.968872,347.007263 305.825317,341.757843 324.722168,336.635162 
	C326.400604,313.263611 328.072998,289.976166 329.777985,266.234680 
	C262.811615,266.234680 195.749054,266.234680 128.309921,266.234680 
	C127.512672,258.034973 126.675034,250.264496 126.017189,242.478821 
	C124.633492,226.102676 123.326981,209.719910 122.026268,193.336899 
	C121.622147,188.246948 121.396683,183.142776 120.989418,178.053116 
	C119.691780,161.836578 118.343826,145.624054 117.022820,129.409378 
	C116.689240,125.314880 116.317299,121.221962 116.079758,117.121544 
	C115.662193,109.913666 115.334694,102.700584 114.956642,95.236359 
	C209.685867,95.236359 303.961151,95.236359 399.222107,95.236359 
	C397.861084,112.968369 396.498535,130.720261 395.103027,148.901550 
	C323.040436,148.901550 251.290375,148.901550 178.402451,148.901550 
	C180.659729,169.756714 182.856613,190.053970 185.102509,210.804016 
	C253.209579,210.804016 321.286346,210.804016 390.023376,210.804016 
	C389.651459,218.462051 389.420502,225.647018 388.921387,232.813309 
	C388.419922,240.013474 387.651459,247.195053 386.999939,254.857117 
z"/>
</svg>