<svg version="1.1" id="Layer_1" xmlns="http://www.w3.org/2000/svg" xmlns:xlink="http://www.w3.org/1999/xlink" x="0px" y="0px"
	 width="100%" viewBox="0 0 200 174" enable-background="new 0 0 200 174" xml:space="preserve">
<path fill="#5ED5F5" opacity="1.000000" stroke="none" 
	d="
M149.000000,175.000000 
	C144.310745,175.000000 139.621490,175.000000 134.369507,174.706558 
	C133.537842,174.608749 133.268921,174.804382 133.000000,175.000000 
	C132.555557,175.000000 132.111099,175.000000 131.700943,174.751007 
	C121.393295,168.116547 111.051353,161.731064 100.219254,155.042953 
	C92.338104,162.156204 82.938309,169.521561 71.293037,173.382660 
	C71.043983,173.465240 71.091064,174.440933 71.000000,175.000000 
	C70.555557,175.000000 70.111107,175.000000 69.437012,174.673111 
	C68.471573,174.564148 67.735786,174.782074 67.000000,175.000000 
	C62.643101,175.000000 58.286201,175.000000 53.872585,174.818115 
	C35.049473,159.834259 41.453014,140.286774 43.683311,121.252258 
	C40.608673,120.154366 37.291950,119.122414 34.095310,117.800148 
	C24.345833,113.767326 15.013992,109.004044 8.233413,100.566956 
	C1.281173,91.916275 1.191613,82.884277 8.700330,74.894806 
	C12.726336,70.611031 17.642298,66.864571 22.784189,64.003387 
	C29.397375,60.323505 36.640285,57.775303 43.916393,54.607052 
	C43.793720,53.849091 43.552197,52.737556 43.441677,51.613144 
	C42.630783,43.363075 41.097088,35.096619 41.248882,26.862198 
	C41.425793,17.265030 43.456429,7.887479 53.147263,2.606556 
	C53.334423,2.504566 53.059391,1.554426 53.000000,1.000000 
	C57.024544,1.000000 61.049088,1.000000 65.660706,1.318518 
	C66.831856,1.424692 67.415924,1.212347 68.000000,1.000001 
	C68.444443,1.000000 68.888893,1.000000 69.322708,1.272751 
	C80.938507,6.745357 91.827148,13.096931 100.964378,22.402958 
	C110.116570,14.079550 119.370270,6.646029 130.843521,2.604490 
	C131.057526,2.529108 130.954895,1.554855 131.000000,1.000000 
	C131.444443,1.000000 131.888901,1.000000 132.563141,1.326806 
	C133.528641,1.435741 134.264313,1.217869 135.000000,0.999999 
	C139.356903,1.000000 143.713806,1.000000 148.126831,1.179456 
	C166.726410,16.441614 160.430588,36.223801 158.290482,55.391575 
	C160.184128,56.003918 162.086960,56.546528 163.937912,57.229710 
	C174.929855,61.286850 185.631882,65.901939 193.503006,75.064156 
	C200.629562,83.359657 201.143646,92.324921 193.671860,100.241081 
	C188.642303,105.569771 182.266342,109.845741 175.928955,113.654663 
	C170.615646,116.848091 164.486267,118.683716 159.436539,120.817062 
	C159.981537,130.639420 161.113266,140.071259 160.855850,149.465042 
	C160.595871,158.952789 158.174866,167.998154 148.958008,173.354828 
	C148.730225,173.487213 148.975418,174.433380 149.000000,175.000000 
M111.341499,56.916065 
	C103.195091,56.942413 95.042664,56.810268 86.906960,57.118851 
	C85.119553,57.186646 82.650360,58.363758 81.758522,59.809418 
	C76.619049,68.140419 71.751167,76.646889 67.076317,85.248825 
	C66.292503,86.691078 66.210571,89.268539 66.980965,90.678596 
	C71.755249,99.416992 76.777596,108.025452 81.961784,116.528152 
	C82.718674,117.769539 84.765739,118.890518 86.239426,118.920876 
	C96.045639,119.122810 105.861389,119.134171 115.665749,118.883476 
	C117.279831,118.842201 119.507500,117.604614 120.338226,116.241409 
	C125.434723,107.878227 130.341125,99.389732 134.972092,90.761154 
	C135.793320,89.230995 135.705063,86.486076 134.873871,84.918892 
	C130.830566,77.295532 126.180443,69.992676 122.176117,62.350529 
	C119.941856,58.086514 116.981728,56.197891 111.341499,56.916065 
M22.510677,73.943031 
	C20.453760,75.622917 18.226042,77.134232 16.371208,79.013565 
	C10.235087,85.230736 10.283551,91.729401 16.879375,97.570206 
	C25.323933,105.048134 35.167767,110.022774 46.133785,112.708572 
	C49.277081,104.817535 52.350723,97.147446 55.366112,89.454514 
	C55.643776,88.746132 55.841644,87.777451 55.584297,87.123291 
	C52.519527,79.332771 49.361332,71.579010 45.814793,62.792877 
	C38.013187,66.490387 30.565083,70.020355 22.510677,73.943031 
M149.528656,160.850266 
	C154.718872,148.241653 152.927643,135.672867 149.949219,123.264847 
	C141.646133,124.508247 133.934311,125.603638 126.250832,126.870918 
	C124.935051,127.087936 123.343292,127.719727 122.554268,128.702194 
	C117.572670,134.905106 112.781487,141.260941 107.675423,147.893646 
	C115.710411,155.713257 124.504044,162.627502 135.630814,165.830658 
	C140.883621,167.342819 145.928436,167.023087 149.528656,160.850266 
M50.949871,130.547989 
	C50.925888,139.274200 49.979351,148.125137 51.137611,156.691498 
	C52.293850,165.242905 58.252396,168.402328 66.598648,165.849091 
	C77.694901,162.454575 87.137817,156.152435 94.958443,147.845016 
	C89.892876,141.460114 85.065056,135.337891 80.180939,129.260895 
	C79.494202,128.406433 78.607956,127.253426 77.685616,127.118828 
	C69.357956,125.903694 61.001648,124.884903 52.441399,123.781158 
	C51.960655,125.841530 51.513573,127.757629 50.949871,130.547989 
M72.143364,49.845032 
	C74.703613,49.000633 78.102531,48.912910 79.671387,47.174042 
	C84.991997,41.276863 89.665298,34.795666 94.784851,28.284548 
	C92.946297,26.667585 91.078247,24.806667 88.990898,23.237469 
	C85.414330,20.548731 81.877563,17.727064 77.994637,15.548360 
	C74.125076,13.377151 69.986092,11.428583 65.723892,10.271118 
	C58.086617,8.197103 53.384888,10.651561 51.341389,17.738428 
	C47.936211,29.547600 49.694294,41.224815 52.620037,52.823154 
	C59.189407,51.808376 65.235878,50.874374 72.143364,49.845032 
M107.837135,29.183697 
	C112.502647,35.011368 117.127144,40.872799 121.871033,46.635948 
	C122.736519,47.687389 123.996429,48.873531 125.231514,49.086784 
	C133.215729,50.465378 141.243561,51.591354 149.251556,52.799328 
	C152.423737,43.229652 153.240692,28.501053 151.083725,19.913715 
	C148.711868,10.470885 143.778412,7.538355 134.545853,10.536831 
	C123.889137,13.997831 115.211426,20.587906 107.837135,29.183697 
M166.274109,108.886047 
	C172.716492,104.854202 179.689346,101.456230 185.462524,96.624748 
	C192.180511,91.002594 191.827103,85.219513 185.586853,79.131828 
	C177.259033,71.007629 166.771362,67.013756 155.876343,63.741657 
	C152.780792,71.463882 149.815720,78.827339 146.891861,86.207123 
	C146.606003,86.928596 146.228088,87.890457 146.476471,88.504814 
	C149.686264,96.444130 153.001999,104.340622 156.409622,112.533257 
	C159.654556,111.312683 162.596024,110.206261 166.274109,108.886047 
M143.094894,102.393013 
	C142.511002,101.192535 141.927124,99.992058 141.098282,98.287926 
	C137.249466,105.004723 133.771011,111.075172 129.852539,117.913567 
	C136.233475,116.789871 141.710327,115.825386 147.710953,114.768669 
	C146.132401,110.516457 144.758972,106.816818 143.094894,102.393013 
M62.559177,101.025902 
	C62.133911,100.402756 61.708641,99.779610 60.742382,98.363739 
	C58.569378,104.313629 56.689037,109.462181 54.589474,115.210983 
	C60.699913,116.169922 66.115265,117.019775 72.229675,117.979340 
	C68.821785,112.014259 65.865448,106.839569 62.559177,101.025902 
M133.746490,58.945721 
	C132.661865,58.945721 131.577225,58.945721 130.177353,58.945721 
	C133.895081,65.253319 137.358185,71.128899 141.320496,77.851418 
	C143.509323,71.863876 145.352173,66.822754 147.333344,61.403252 
	C142.694107,60.531448 138.634827,59.768631 133.746490,58.945721 
M109.911713,131.286819 
	C110.511902,130.285141 111.112091,129.283463 111.782349,128.164841 
	C104.500763,128.164841 97.767334,128.164841 89.923676,128.164841 
	C94.058357,133.053467 97.579720,137.216934 101.341881,141.665115 
	C104.373398,138.004074 106.915451,134.934158 109.911713,131.286819 
M58.535946,71.867004 
	C59.283928,73.592094 60.031906,75.317192 60.995750,77.540146 
	C64.627228,71.253288 67.858612,65.671318 71.061470,60.073029 
	C71.201271,59.828663 71.079361,59.434570 71.079361,58.487823 
	C65.680664,59.408745 60.420692,60.306000 54.833305,61.259106 
	C56.075554,64.928680 57.132645,68.051323 58.535946,71.867004 
M108.757523,48.133232 
	C109.641144,48.039726 110.524757,47.946224 112.169250,47.772202 
	C108.199471,43.055347 104.755806,38.963615 101.030594,34.537357 
	C97.156113,39.200047 93.743851,43.306488 89.734642,48.131321 
	C96.616920,48.131321 102.258438,48.131321 108.757523,48.133232 
z"/>
<path fill="#000101" opacity="1.000000" stroke="none" 
	d="
M149.468658,175.000000 
	C148.975418,174.433380 148.730225,173.487213 148.958008,173.354828 
	C158.174866,167.998154 160.595871,158.952789 160.855850,149.465042 
	C161.113266,140.071259 159.981537,130.639420 159.436539,120.817062 
	C164.486267,118.683716 170.615646,116.848091 175.928955,113.654663 
	C182.266342,109.845741 188.642303,105.569771 193.671860,100.241081 
	C201.143646,92.324921 200.629562,83.359657 193.503006,75.064156 
	C185.631882,65.901939 174.929855,61.286850 163.937912,57.229710 
	C162.086960,56.546528 160.184128,56.003918 158.290482,55.391575 
	C160.430588,36.223801 166.726410,16.441614 148.591461,1.179456 
	C166.306015,1.000000 183.612045,1.000000 200.959030,1.000000 
	C200.959030,58.881271 200.959030,116.762581 200.959030,175.000000 
	C183.980759,175.000000 166.959045,175.000000 149.468658,175.000000 
z"/>
<path fill="#000101" opacity="1.000000" stroke="none" 
	d="
M52.531342,1.000000 
	C53.059391,1.554426 53.334423,2.504566 53.147263,2.606556 
	C43.456429,7.887479 41.425793,17.265030 41.248882,26.862198 
	C41.097088,35.096619 42.630783,43.363075 43.441677,51.613144 
	C43.552197,52.737556 43.793720,53.849091 43.916393,54.607052 
	C36.640285,57.775303 29.397375,60.323505 22.784189,64.003387 
	C17.642298,66.864571 12.726336,70.611031 8.700330,74.894806 
	C1.191613,82.884277 1.281173,91.916275 8.233413,100.566956 
	C15.013992,109.004044 24.345833,113.767326 34.095310,117.800148 
	C37.291950,119.122414 40.608673,120.154366 43.683311,121.252258 
	C41.453014,140.286774 35.049473,159.834259 53.407936,174.818115 
	C35.693977,175.000000 18.387959,175.000000 1.040968,175.000000 
	C1.040968,117.118729 1.040968,59.237419 1.040968,1.000000 
	C18.019239,1.000000 35.040962,1.000000 52.531342,1.000000 
z"/>
<path fill="#010303" opacity="1.000000" stroke="none" 
	d="
M130.531342,1.000000 
	C130.954895,1.554855 131.057526,2.529108 130.843521,2.604490 
	C119.370270,6.646029 110.116570,14.079550 100.964378,22.402958 
	C91.827148,13.096931 80.938507,6.745357 69.656044,1.272751 
	C90.020897,1.000000 110.041786,1.000000 130.531342,1.000000 
z"/>
<path fill="#010304" opacity="1.000000" stroke="none" 
	d="
M71.468658,175.000000 
	C71.091064,174.440933 71.043983,173.465240 71.293037,173.382660 
	C82.938309,169.521561 92.338104,162.156204 100.219254,155.042953 
	C111.051353,161.731064 121.393295,168.116547 131.367615,174.751007 
	C111.312439,175.000000 91.624878,175.000000 71.468658,175.000000 
z"/>
<path fill="#010303" opacity="1.000000" stroke="none" 
	d="
M134.666672,0.999999 
	C134.264313,1.217869 133.528641,1.435741 132.896484,1.326806 
	C133.444443,1.000000 133.888901,1.000000 134.666672,0.999999 
z"/>
<path fill="#010303" opacity="1.000000" stroke="none" 
	d="
M67.666672,1.000001 
	C67.415924,1.212347 66.831856,1.424692 66.123886,1.318518 
	C66.444443,1.000000 66.888893,1.000000 67.666672,1.000001 
z"/>
<path fill="#010304" opacity="1.000000" stroke="none" 
	d="
M67.333328,175.000000 
	C67.735786,174.782074 68.471573,174.564148 69.103683,174.673111 
	C68.555557,175.000000 68.111107,175.000000 67.333328,175.000000 
z"/>
<path fill="#010304" opacity="1.000000" stroke="none" 
	d="
M133.250000,175.000000 
	C133.268921,174.804382 133.537842,174.608749 133.903381,174.706558 
	C134.000000,175.000000 133.500000,175.000000 133.250000,175.000000 
z"/>
<path fill="#010304" opacity="1.000000" stroke="none" 
	d="
M111.815567,56.927948 
	C116.981728,56.197891 119.941856,58.086514 122.176117,62.350529 
	C126.180443,69.992676 130.830566,77.295532 134.873871,84.918892 
	C135.705063,86.486076 135.793320,89.230995 134.972092,90.761154 
	C130.341125,99.389732 125.434723,107.878227 120.338226,116.241409 
	C119.507500,117.604614 117.279831,118.842201 115.665749,118.883476 
	C105.861389,119.134171 96.045639,119.122810 86.239426,118.920876 
	C84.765739,118.890518 82.718674,117.769539 81.961784,116.528152 
	C76.777596,108.025452 71.755249,99.416992 66.980965,90.678596 
	C66.210571,89.268539 66.292503,86.691078 67.076317,85.248825 
	C71.751167,76.646889 76.619049,68.140419 81.758522,59.809418 
	C82.650360,58.363758 85.119553,57.186646 86.906960,57.118851 
	C95.042664,56.810268 103.195091,56.942413 111.815567,56.927948 
M111.947701,101.579277 
	C118.557060,95.105225 120.297585,87.200241 116.705070,79.972649 
	C113.487000,73.498390 105.937515,69.397980 99.040199,70.378204 
	C91.661880,71.426781 85.805954,76.433510 84.065170,83.181610 
	C82.261436,90.173752 84.803436,97.621330 90.432610,101.837029 
	C96.565140,106.429695 103.841591,106.486053 111.947701,101.579277 
z"/>
<path fill="#010303" opacity="1.000000" stroke="none" 
	d="
M22.813828,73.746681 
	C30.565083,70.020355 38.013187,66.490387 45.814793,62.792877 
	C49.361332,71.579010 52.519527,79.332771 55.584297,87.123291 
	C55.841644,87.777451 55.643776,88.746132 55.366112,89.454514 
	C52.350723,97.147446 49.277081,104.817535 46.133785,112.708572 
	C35.167767,110.022774 25.323933,105.048134 16.879375,97.570206 
	C10.283551,91.729401 10.235087,85.230736 16.371208,79.013565 
	C18.226042,77.134232 20.453760,75.622917 22.813828,73.746681 
z"/>
<path fill="#010304" opacity="1.000000" stroke="none" 
	d="
M149.307037,161.164917 
	C145.928436,167.023087 140.883621,167.342819 135.630814,165.830658 
	C124.504044,162.627502 115.710411,155.713257 107.675423,147.893646 
	C112.781487,141.260941 117.572670,134.905106 122.554268,128.702194 
	C123.343292,127.719727 124.935051,127.087936 126.250832,126.870918 
	C133.934311,125.603638 141.646133,124.508247 149.949219,123.264847 
	C152.927643,135.672867 154.718872,148.241653 149.307037,161.164917 
z"/>
<path fill="#010303" opacity="1.000000" stroke="none" 
	d="
M51.008179,130.110870 
	C51.513573,127.757629 51.960655,125.841530 52.441399,123.781158 
	C61.001648,124.884903 69.357956,125.903694 77.685616,127.118828 
	C78.607956,127.253426 79.494202,128.406433 80.180939,129.260895 
	C85.065056,135.337891 89.892876,141.460114 94.958443,147.845016 
	C87.137817,156.152435 77.694901,162.454575 66.598648,165.849091 
	C58.252396,168.402328 52.293850,165.242905 51.137611,156.691498 
	C49.979351,148.125137 50.925888,139.274200 51.008179,130.110870 
z"/>
<path fill="#010303" opacity="1.000000" stroke="none" 
	d="
M71.712852,49.892700 
	C65.235878,50.874374 59.189407,51.808376 52.620037,52.823154 
	C49.694294,41.224815 47.936211,29.547600 51.341389,17.738428 
	C53.384888,10.651561 58.086617,8.197103 65.723892,10.271118 
	C69.986092,11.428583 74.125076,13.377151 77.994637,15.548360 
	C81.877563,17.727064 85.414330,20.548731 88.990898,23.237469 
	C91.078247,24.806667 92.946297,26.667585 94.784851,28.284548 
	C89.665298,34.795666 84.991997,41.276863 79.671387,47.174042 
	C78.102531,48.912910 74.703613,49.000633 71.712852,49.892700 
z"/>
<path fill="#010303" opacity="1.000000" stroke="none" 
	d="
M107.654205,28.850632 
	C115.211426,20.587906 123.889137,13.997831 134.545853,10.536831 
	C143.778412,7.538355 148.711868,10.470885 151.083725,19.913715 
	C153.240692,28.501053 152.423737,43.229652 149.251556,52.799328 
	C141.243561,51.591354 133.215729,50.465378 125.231514,49.086784 
	C123.996429,48.873531 122.736519,47.687389 121.871033,46.635948 
	C117.127144,40.872799 112.502647,35.011368 107.654205,28.850632 
z"/>
<path fill="#010203" opacity="1.000000" stroke="none" 
	d="
M165.905792,108.992943 
	C162.596024,110.206261 159.654556,111.312683 156.409622,112.533257 
	C153.001999,104.340622 149.686264,96.444130 146.476471,88.504814 
	C146.228088,87.890457 146.606003,86.928596 146.891861,86.207123 
	C149.815720,78.827339 152.780792,71.463882 155.876343,63.741657 
	C166.771362,67.013756 177.259033,71.007629 185.586853,79.131828 
	C191.827103,85.219513 192.180511,91.002594 185.462524,96.624748 
	C179.689346,101.456230 172.716492,104.854202 165.905792,108.992943 
z"/>
<path fill="#040A0B" opacity="1.000000" stroke="none" 
	d="
M143.240219,102.755096 
	C144.758972,106.816818 146.132401,110.516457 147.710953,114.768669 
	C141.710327,115.825386 136.233475,116.789871 129.852539,117.913567 
	C133.771011,111.075172 137.249466,105.004723 141.098282,98.287926 
	C141.927124,99.992058 142.511002,101.192535 143.240219,102.755096 
z"/>
<path fill="#04090B" opacity="1.000000" stroke="none" 
	d="
M62.734146,101.345390 
	C65.865448,106.839569 68.821785,112.014259 72.229675,117.979340 
	C66.115265,117.019775 60.699913,116.169922 54.589474,115.210983 
	C56.689037,109.462181 58.569378,104.313629 60.742382,98.363739 
	C61.708641,99.779610 62.133911,100.402756 62.734146,101.345390 
z"/>
<path fill="#04090A" opacity="1.000000" stroke="none" 
	d="
M134.161011,58.975769 
	C138.634827,59.768631 142.694107,60.531448 147.333344,61.403252 
	C145.352173,66.822754 143.509323,71.863876 141.320496,77.851418 
	C137.358185,71.128899 133.895081,65.253319 130.177353,58.945721 
	C131.577225,58.945721 132.661865,58.945721 134.161011,58.975769 
z"/>
<path fill="#020606" opacity="1.000000" stroke="none" 
	d="
M109.684608,131.575531 
	C106.915451,134.934158 104.373398,138.004074 101.341881,141.665115 
	C97.579720,137.216934 94.058357,133.053467 89.923676,128.164841 
	C97.767334,128.164841 104.500763,128.164841 111.782349,128.164841 
	C111.112091,129.283463 110.511902,130.285141 109.684608,131.575531 
z"/>
<path fill="#04090B" opacity="1.000000" stroke="none" 
	d="
M58.362839,71.520477 
	C57.132645,68.051323 56.075554,64.928680 54.833305,61.259106 
	C60.420692,60.306000 65.680664,59.408745 71.079361,58.487823 
	C71.079361,59.434570 71.201271,59.828663 71.061470,60.073029 
	C67.858612,65.671318 64.627228,71.253288 60.995750,77.540146 
	C60.031906,75.317192 59.283928,73.592094 58.362839,71.520477 
z"/>
<path fill="#020606" opacity="1.000000" stroke="none" 
	d="
M108.328735,48.132278 
	C102.258438,48.131321 96.616920,48.131321 89.734642,48.131321 
	C93.743851,43.306488 97.156113,39.200047 101.030594,34.537357 
	C104.755806,38.963615 108.199471,43.055347 112.169250,47.772202 
	C110.524757,47.946224 109.641144,48.039726 108.328735,48.132278 
z"/>
<path fill="#60D8F8" opacity="1.000000" stroke="none" 
	d="
M111.638977,101.789078 
	C103.841591,106.486053 96.565140,106.429695 90.432610,101.837029 
	C84.803436,97.621330 82.261436,90.173752 84.065170,83.181610 
	C85.805954,76.433510 91.661880,71.426781 99.040199,70.378204 
	C105.937515,69.397980 113.487000,73.498390 116.705070,79.972649 
	C120.297585,87.200241 118.557060,95.105225 111.638977,101.789078 
z"/>
</svg>