<svg version="1.1" id="Layer_1" xmlns="http://www.w3.org/2000/svg" xmlns:xlink="http://www.w3.org/1999/xlink" x="0px" y="0px"
	 width="100%" viewBox="0 0 2048 2048" enable-background="new 0 0 2048 2048" xml:space="preserve">
<path fill="#000000" opacity="1.000000" stroke="none" 
	d="
M988.000000,2049.000000 
	C658.666687,2049.000000 329.833344,2049.000000 1.000000,2049.000000 
	C1.000000,1366.333374 1.000000,683.666687 1.000000,1.000000 
	C683.666687,1.000000 1366.333374,1.000000 2049.000000,1.000000 
	C2049.000000,683.666687 2049.000000,1366.333374 2049.000000,2049.000000 
	C1695.500000,2049.000000 1342.000000,2049.000000 988.000000,2049.000000 
M1404.476562,1416.039185 
	C1411.497559,1405.684448 1418.615845,1395.394043 1425.519165,1384.961426 
	C1440.018555,1363.049316 1451.723755,1339.622070 1462.643311,1315.784546 
	C1475.646973,1287.397339 1486.228882,1258.149902 1493.603149,1227.781860 
	C1494.646484,1223.484863 1495.430298,1219.124756 1496.352173,1214.708130 
	C1481.385986,1231.863892 1467.299316,1248.928955 1452.175781,1265.019409 
	C1442.390503,1275.430298 1431.252808,1284.604614 1420.429810,1293.997070 
	C1402.521362,1309.538452 1382.706421,1322.293823 1361.607300,1333.065186 
	C1341.149048,1343.509399 1319.800171,1351.301270 1297.317139,1356.398193 
	C1280.286377,1360.259155 1263.115967,1362.019409 1245.801392,1362.895752 
	C1239.569824,1363.211060 1233.243530,1362.639038 1227.020508,1361.937866 
	C1214.042969,1360.475830 1201.068359,1358.901245 1188.159058,1356.936035 
	C1160.987793,1352.799561 1135.671997,1342.720581 1110.666992,1331.871704 
	C1082.804688,1319.783081 1059.230591,1301.395752 1037.871460,1280.201416 
	C1019.287354,1261.760620 1001.672058,1242.346313 983.199768,1223.789062 
	C956.900940,1197.369263 931.370728,1170.099365 902.163147,1146.754639 
	C888.426392,1135.775146 874.628357,1124.794434 860.154114,1114.837646 
	C846.126221,1105.187866 831.593628,1096.099854 816.560425,1088.126953 
	C798.104736,1078.338867 779.312195,1068.922363 759.914856,1061.240112 
	C735.236694,1051.466309 709.849915,1043.315674 683.550293,1038.902588 
	C659.590149,1034.882080 635.551575,1031.242065 611.455139,1028.156494 
	C599.371887,1026.609131 587.087769,1026.268677 574.885193,1026.113037 
	C562.127380,1025.950317 549.341919,1026.363892 536.598206,1027.064941 
	C517.211609,1028.131592 497.832855,1029.452637 478.485687,1031.080688 
	C467.901611,1031.971436 457.262421,1033.093994 446.873505,1035.215698 
	C430.015778,1038.658813 413.307068,1042.863037 396.601166,1047.010742 
	C372.124573,1053.087646 348.640717,1062.046631 325.835083,1072.690186 
	C298.768433,1085.322388 272.869659,1100.028076 249.559647,1118.869995 
	C236.977463,1129.040527 224.424805,1139.300537 212.526794,1150.246216 
	C204.306915,1157.808105 196.938736,1166.366455 189.713150,1174.921387 
	C179.913132,1186.524414 169.868744,1198.035889 161.260574,1210.505737 
	C145.362839,1233.535156 131.580200,1257.854980 120.087982,1283.453125 
	C107.554375,1311.370850 97.586990,1340.154663 90.137230,1369.803833 
	C87.489624,1380.341064 85.560356,1391.058960 83.303169,1401.694336 
	C90.806992,1392.909424 97.080002,1383.623657 104.165894,1375.006104 
	C112.826759,1364.473022 121.686775,1354.014160 131.354004,1344.423584 
	C140.911636,1334.941772 151.036667,1325.834351 161.894333,1317.907104 
	C177.769089,1306.316895 194.091721,1295.200317 211.014343,1285.223389 
	C228.939651,1274.655396 248.358414,1267.041504 268.415466,1261.241455 
	C287.451050,1255.736572 306.900452,1252.311157 326.623657,1251.181030 
	C338.162811,1250.519653 349.807831,1251.596313 361.400909,1252.011719 
	C378.312683,1252.617676 394.518280,1256.902100 410.542419,1261.892334 
	C440.744110,1271.297852 468.160034,1286.159424 494.418365,1303.687622 
	C515.241638,1317.587524 534.773254,1333.032959 553.660095,1349.324463 
	C567.013489,1360.843018 579.940979,1372.891479 592.578613,1385.196411 
	C619.525574,1411.433716 645.739929,1438.437866 673.107971,1464.221924 
	C685.984741,1476.353027 700.382812,1487.031982 714.888489,1497.235962 
	C740.478638,1515.237549 767.557129,1530.883423 796.452820,1543.010376 
	C817.048035,1551.653931 837.880798,1559.805542 858.920349,1567.298218 
	C888.871155,1577.964233 919.959656,1584.380127 951.362793,1588.776611 
	C970.687988,1591.482056 990.247925,1592.872070 1009.752625,1593.809937 
	C1023.289551,1594.460815 1036.932495,1593.694580 1050.490601,1592.912720 
	C1066.899292,1591.966553 1083.298462,1590.623047 1099.644531,1588.905884 
	C1111.647583,1587.644897 1123.660522,1586.012695 1135.485352,1583.633057 
	C1150.723633,1580.566528 1165.802002,1576.684082 1180.906982,1572.980713 
	C1204.890137,1567.100708 1228.037109,1558.837158 1250.355469,1548.253052 
	C1269.068481,1539.378906 1287.148315,1529.316772 1303.573730,1516.724365 
	C1319.157104,1504.777954 1334.340942,1492.247192 1349.022827,1479.210083 
	C1358.670776,1470.642944 1367.505615,1461.060791 1375.997559,1451.316895 
	C1385.760254,1440.114624 1394.742676,1428.232300 1404.476562,1416.039185 
M1830.949463,770.533203 
	C1814.479248,778.195740 1797.810059,785.159546 1780.318726,790.425598 
	C1756.561890,797.578064 1732.295654,800.048096 1707.766479,800.852539 
	C1699.602783,801.120300 1691.340698,799.989014 1683.198364,798.925354 
	C1671.414673,797.385986 1659.522461,796.063660 1647.999390,793.301636 
	C1633.681396,789.869690 1619.430542,785.774658 1605.622681,780.685608 
	C1584.755371,772.994507 1563.986450,764.599792 1545.967041,751.269409 
	C1532.173218,741.065063 1518.623779,730.302368 1506.275146,718.426392 
	C1488.014404,700.864807 1471.116577,681.895569 1453.265747,663.895325 
	C1434.176025,644.645813 1414.900391,625.565186 1395.231689,606.910767 
	C1382.604370,594.934692 1369.884033,582.808838 1355.843506,572.628296 
	C1334.156006,556.903259 1311.706055,542.124939 1288.832153,528.170227 
	C1265.339966,513.838440 1239.933472,503.233948 1214.017944,493.932892 
	C1174.918213,479.900055 1134.473145,471.802826 1093.340454,467.153870 
	C1076.154541,465.211456 1058.783691,464.546082 1041.477295,464.138763 
	C1026.896240,463.795532 1012.285278,464.622223 997.689819,465.015076 
	C988.423523,465.264496 979.158875,465.614166 969.898254,466.025787 
	C965.627502,466.215637 961.336487,466.437225 957.109436,467.033173 
	C943.717773,468.921112 930.280884,470.611145 916.994751,473.091766 
	C901.362793,476.010376 885.772034,479.279358 870.338501,483.103302 
	C841.430115,490.265961 813.687561,500.832062 786.858643,513.686157 
	C766.056152,523.652893 745.908325,534.948547 727.644226,549.076172 
	C711.318237,561.704590 695.550720,575.092102 680.023438,588.699951 
	C672.336853,595.436340 665.592346,603.283813 658.708069,610.887939 
	C653.331238,616.826965 647.906189,622.826721 643.360840,629.393616 
	C631.799622,646.096985 619.801392,662.605652 609.699219,680.181580 
	C599.095154,698.630554 589.453247,717.799255 581.308899,737.448425 
	C573.202148,757.006836 566.993408,777.406799 560.876953,797.716187 
	C556.747986,811.426453 554.221680,825.619324 550.978455,839.596252 
	C551.493530,839.860840 552.008667,840.125366 552.523804,840.389893 
	C552.674316,839.947327 552.744080,839.453796 552.986816,839.069519 
	C564.837524,820.308899 578.794678,803.141541 594.346558,787.435974 
	C605.675842,775.994812 618.055542,765.542236 630.417053,755.186279 
	C650.994202,737.947510 673.926941,724.409668 698.320801,713.243164 
	C727.917053,699.695190 758.970520,691.488220 791.336487,689.205200 
	C812.736084,687.695679 834.309814,688.442810 855.360840,693.272156 
	C883.038818,699.621826 909.180420,710.023621 934.030640,723.924377 
	C960.282043,738.608765 984.630981,755.953186 1007.563171,775.254822 
	C1024.034790,789.118774 1040.186890,803.431152 1055.677856,818.376404 
	C1084.766479,846.440308 1113.011719,875.379517 1142.164185,903.375244 
	C1152.350342,913.157227 1163.704712,921.919434 1175.368530,929.917908 
	C1191.031006,940.658386 1207.082397,950.994568 1223.751221,960.062195 
	C1243.563843,970.839905 1263.863525,980.895508 1284.597168,989.754089 
	C1302.735840,997.503967 1321.588501,1003.745667 1340.462524,1009.560425 
	C1355.601074,1014.224304 1371.132935,1017.825439 1386.694946,1020.841370 
	C1402.540161,1023.912170 1418.586548,1026.134888 1434.635254,1027.914185 
	C1451.463379,1029.779785 1468.381714,1031.021606 1485.294189,1031.859741 
	C1494.353760,1032.308838 1503.493164,1031.494019 1512.580078,1030.967285 
	C1527.546997,1030.099976 1542.539795,1029.392090 1557.448975,1027.894531 
	C1572.380127,1026.394775 1587.387329,1024.817505 1602.063965,1021.819397 
	C1623.023315,1017.538086 1643.969727,1012.794617 1664.453369,1006.680176 
	C1691.896729,998.488159 1718.352051,987.637634 1743.201538,973.047424 
	C1767.957642,958.512146 1791.081177,941.765930 1812.008423,922.222839 
	C1824.703613,910.367371 1836.234375,897.241394 1848.009277,884.429626 
	C1863.725342,867.329346 1876.997681,848.374146 1889.656982,828.936890 
	C1906.660767,802.829102 1921.156860,775.433167 1933.631958,746.898926 
	C1944.504761,722.030212 1953.609619,696.579895 1960.316406,670.281128 
	C1961.797974,664.471619 1963.058716,658.605896 1964.421265,652.766052 
	C1962.666992,652.928040 1962.017578,653.422119 1961.504883,654.031128 
	C1947.464233,670.711365 1933.640137,687.580017 1919.307373,704.005066 
	C1913.682495,710.451111 1907.116821,716.130310 1900.632202,721.758606 
	C1892.608521,728.722717 1884.651367,735.898804 1875.898804,741.857056 
	C1861.419312,751.713989 1846.326782,760.670227 1830.949463,770.533203 
z"/>
<path fill="#07B6D5" opacity="1.000000" stroke="none" 
	d="
M1404.270264,1416.342285 
	C1394.742676,1428.232300 1385.760254,1440.114624 1375.997559,1451.316895 
	C1367.505615,1461.060791 1358.670776,1470.642944 1349.022827,1479.210083 
	C1334.340942,1492.247192 1319.157104,1504.777954 1303.573730,1516.724365 
	C1287.148315,1529.316772 1269.068481,1539.378906 1250.355469,1548.253052 
	C1228.037109,1558.837158 1204.890137,1567.100708 1180.906982,1572.980713 
	C1165.802002,1576.684082 1150.723633,1580.566528 1135.485352,1583.633057 
	C1123.660522,1586.012695 1111.647583,1587.644897 1099.644531,1588.905884 
	C1083.298462,1590.623047 1066.899292,1591.966553 1050.490601,1592.912720 
	C1036.932495,1593.694580 1023.289551,1594.460815 1009.752625,1593.809937 
	C990.247925,1592.872070 970.687988,1591.482056 951.362793,1588.776611 
	C919.959656,1584.380127 888.871155,1577.964233 858.920349,1567.298218 
	C837.880798,1559.805542 817.048035,1551.653931 796.452820,1543.010376 
	C767.557129,1530.883423 740.478638,1515.237549 714.888489,1497.235962 
	C700.382812,1487.031982 685.984741,1476.353027 673.107971,1464.221924 
	C645.739929,1438.437866 619.525574,1411.433716 592.578613,1385.196411 
	C579.940979,1372.891479 567.013489,1360.843018 553.660095,1349.324463 
	C534.773254,1333.032959 515.241638,1317.587524 494.418365,1303.687622 
	C468.160034,1286.159424 440.744110,1271.297852 410.542419,1261.892334 
	C394.518280,1256.902100 378.312683,1252.617676 361.400909,1252.011719 
	C349.807831,1251.596313 338.162811,1250.519653 326.623657,1251.181030 
	C306.900452,1252.311157 287.451050,1255.736572 268.415466,1261.241455 
	C248.358414,1267.041504 228.939651,1274.655396 211.014343,1285.223389 
	C194.091721,1295.200317 177.769089,1306.316895 161.894333,1317.907104 
	C151.036667,1325.834351 140.911636,1334.941772 131.354004,1344.423584 
	C121.686775,1354.014160 112.826759,1364.473022 104.165894,1375.006104 
	C97.080002,1383.623657 90.806992,1392.909424 83.303169,1401.694336 
	C85.560356,1391.058960 87.489624,1380.341064 90.137230,1369.803833 
	C97.586990,1340.154663 107.554375,1311.370850 120.087982,1283.453125 
	C131.580200,1257.854980 145.362839,1233.535156 161.260574,1210.505737 
	C169.868744,1198.035889 179.913132,1186.524414 189.713150,1174.921387 
	C196.938736,1166.366455 204.306915,1157.808105 212.526794,1150.246216 
	C224.424805,1139.300537 236.977463,1129.040527 249.559647,1118.869995 
	C272.869659,1100.028076 298.768433,1085.322388 325.835083,1072.690186 
	C348.640717,1062.046631 372.124573,1053.087646 396.601166,1047.010742 
	C413.307068,1042.863037 430.015778,1038.658813 446.873505,1035.215698 
	C457.262421,1033.093994 467.901611,1031.971436 478.485687,1031.080688 
	C497.832855,1029.452637 517.211609,1028.131592 536.598206,1027.064941 
	C549.341919,1026.363892 562.127380,1025.950317 574.885193,1026.113037 
	C587.087769,1026.268677 599.371887,1026.609131 611.455139,1028.156494 
	C635.551575,1031.242065 659.590149,1034.882080 683.550293,1038.902588 
	C709.849915,1043.315674 735.236694,1051.466309 759.914856,1061.240112 
	C779.312195,1068.922363 798.104736,1078.338867 816.560425,1088.126953 
	C831.593628,1096.099854 846.126221,1105.187866 860.154114,1114.837646 
	C874.628357,1124.794434 888.426392,1135.775146 902.163147,1146.754639 
	C931.370728,1170.099365 956.900940,1197.369263 983.199768,1223.789062 
	C1001.672058,1242.346313 1019.287354,1261.760620 1037.871460,1280.201416 
	C1059.230591,1301.395752 1082.804688,1319.783081 1110.666992,1331.871704 
	C1135.671997,1342.720581 1160.987793,1352.799561 1188.159058,1356.936035 
	C1201.068359,1358.901245 1214.042969,1360.475830 1227.020508,1361.937866 
	C1233.243530,1362.639038 1239.569824,1363.211060 1245.801392,1362.895752 
	C1263.115967,1362.019409 1280.286377,1360.259155 1297.317139,1356.398193 
	C1319.800171,1351.301270 1341.149048,1343.509399 1361.607300,1333.065186 
	C1382.706421,1322.293823 1402.521362,1309.538452 1420.429810,1293.997070 
	C1431.252808,1284.604614 1442.390503,1275.430298 1452.175781,1265.019409 
	C1467.299316,1248.928955 1481.385986,1231.863892 1496.352173,1214.708130 
	C1495.430298,1219.124756 1494.646484,1223.484863 1493.603149,1227.781860 
	C1486.228882,1258.149902 1475.646973,1287.397339 1462.643311,1315.784546 
	C1451.723755,1339.622070 1440.018555,1363.049316 1425.519165,1384.961426 
	C1418.615845,1395.394043 1411.497559,1405.684448 1404.270264,1416.342285 
z"/>
<path fill="#07B6D5" opacity="1.000000" stroke="none" 
	d="
M1831.221069,770.269592 
	C1846.326782,760.670227 1861.419312,751.713989 1875.898804,741.857056 
	C1884.651367,735.898804 1892.608521,728.722717 1900.632202,721.758606 
	C1907.116821,716.130310 1913.682495,710.451111 1919.307373,704.005066 
	C1933.640137,687.580017 1947.464233,670.711365 1961.504883,654.031128 
	C1962.017578,653.422119 1962.666992,652.928040 1964.421265,652.766052 
	C1963.058716,658.605896 1961.797974,664.471619 1960.316406,670.281128 
	C1953.609619,696.579895 1944.504761,722.030212 1933.631958,746.898926 
	C1921.156860,775.433167 1906.660767,802.829102 1889.656982,828.936890 
	C1876.997681,848.374146 1863.725342,867.329346 1848.009277,884.429626 
	C1836.234375,897.241394 1824.703613,910.367371 1812.008423,922.222839 
	C1791.081177,941.765930 1767.957642,958.512146 1743.201538,973.047424 
	C1718.352051,987.637634 1691.896729,998.488159 1664.453369,1006.680176 
	C1643.969727,1012.794617 1623.023315,1017.538086 1602.063965,1021.819397 
	C1587.387329,1024.817505 1572.380127,1026.394775 1557.448975,1027.894531 
	C1542.539795,1029.392090 1527.546997,1030.099976 1512.580078,1030.967285 
	C1503.493164,1031.494019 1494.353760,1032.308838 1485.294189,1031.859741 
	C1468.381714,1031.021606 1451.463379,1029.779785 1434.635254,1027.914185 
	C1418.586548,1026.134888 1402.540161,1023.912170 1386.694946,1020.841370 
	C1371.132935,1017.825439 1355.601074,1014.224304 1340.462524,1009.560425 
	C1321.588501,1003.745667 1302.735840,997.503967 1284.597168,989.754089 
	C1263.863525,980.895508 1243.563843,970.839905 1223.751221,960.062195 
	C1207.082397,950.994568 1191.031006,940.658386 1175.368530,929.917908 
	C1163.704712,921.919434 1152.350342,913.157227 1142.164185,903.375244 
	C1113.011719,875.379517 1084.766479,846.440308 1055.677856,818.376404 
	C1040.186890,803.431152 1024.034790,789.118774 1007.563171,775.254822 
	C984.630981,755.953186 960.282043,738.608765 934.030640,723.924377 
	C909.180420,710.023621 883.038818,699.621826 855.360840,693.272156 
	C834.309814,688.442810 812.736084,687.695679 791.336487,689.205200 
	C758.970520,691.488220 727.917053,699.695190 698.320801,713.243164 
	C673.926941,724.409668 650.994202,737.947510 630.417053,755.186279 
	C618.055542,765.542236 605.675842,775.994812 594.346558,787.435974 
	C578.794678,803.141541 564.837524,820.308899 552.986816,839.069519 
	C552.744080,839.453796 552.674316,839.947327 552.523804,840.389893 
	C552.008667,840.125366 551.493530,839.860840 550.978455,839.596252 
	C554.221680,825.619324 556.747986,811.426453 560.876953,797.716187 
	C566.993408,777.406799 573.202148,757.006836 581.308899,737.448425 
	C589.453247,717.799255 599.095154,698.630554 609.699219,680.181580 
	C619.801392,662.605652 631.799622,646.096985 643.360840,629.393616 
	C647.906189,622.826721 653.331238,616.826965 658.708069,610.887939 
	C665.592346,603.283813 672.336853,595.436340 680.023438,588.699951 
	C695.550720,575.092102 711.318237,561.704590 727.644226,549.076172 
	C745.908325,534.948547 766.056152,523.652893 786.858643,513.686157 
	C813.687561,500.832062 841.430115,490.265961 870.338501,483.103302 
	C885.772034,479.279358 901.362793,476.010376 916.994751,473.091766 
	C930.280884,470.611145 943.717773,468.921112 957.109436,467.033173 
	C961.336487,466.437225 965.627502,466.215637 969.898254,466.025787 
	C979.158875,465.614166 988.423523,465.264496 997.689819,465.015076 
	C1012.285278,464.622223 1026.896240,463.795532 1041.477295,464.138763 
	C1058.783691,464.546082 1076.154541,465.211456 1093.340454,467.153870 
	C1134.473145,471.802826 1174.918213,479.900055 1214.017944,493.932892 
	C1239.933472,503.233948 1265.339966,513.838440 1288.832153,528.170227 
	C1311.706055,542.124939 1334.156006,556.903259 1355.843506,572.628296 
	C1369.884033,582.808838 1382.604370,594.934692 1395.231689,606.910767 
	C1414.900391,625.565186 1434.176025,644.645813 1453.265747,663.895325 
	C1471.116577,681.895569 1488.014404,700.864807 1506.275146,718.426392 
	C1518.623779,730.302368 1532.173218,741.065063 1545.967041,751.269409 
	C1563.986450,764.599792 1584.755371,772.994507 1605.622681,780.685608 
	C1619.430542,785.774658 1633.681396,789.869690 1647.999390,793.301636 
	C1659.522461,796.063660 1671.414673,797.385986 1683.198364,798.925354 
	C1691.340698,799.989014 1699.602783,801.120300 1707.766479,800.852539 
	C1732.295654,800.048096 1756.561890,797.578064 1780.318726,790.425598 
	C1797.810059,785.159546 1814.479248,778.195740 1831.221069,770.269592 
z"/>
</svg>